<svg width="16" height="16" viewBox="0 0 16 16" fill="none" xmlns="http://www.w3.org/2000/svg">
<path d="M16 9.77774C16 9.9349 15.9376 10.0856 15.8264 10.1967C15.7153 10.3079 15.5646 10.3703 15.4074 10.3703H14.2223V11.5555C14.2223 11.7126 14.1599 11.8633 14.0487 11.9745C13.9376 12.0856 13.7869 12.148 13.6297 12.148C13.4726 12.148 13.3218 12.0856 13.2107 11.9745C13.0996 11.8633 13.0371 11.7126 13.0371 11.5555V10.3703H11.852C11.6948 10.3703 11.5441 10.3079 11.433 10.1967C11.3219 10.0856 11.2594 9.9349 11.2594 9.77774C11.2594 9.62058 11.3219 9.46985 11.433 9.35873C11.5441 9.2476 11.6948 9.18517 11.852 9.18517H13.0371V8.00002C13.0371 7.84286 13.0996 7.69214 13.2107 7.58101C13.3218 7.46988 13.4726 7.40745 13.6297 7.40745C13.7869 7.40745 13.9376 7.46988 14.0487 7.58101C14.1599 7.69214 14.2223 7.84286 14.2223 8.00002V9.18517H15.4074C15.5646 9.18517 15.7153 9.2476 15.8264 9.35873C15.9376 9.46985 16 9.62058 16 9.77774ZM1.77828 3.85202H2.96342V5.03716C2.96342 5.19432 3.02585 5.34505 3.13698 5.45617C3.24811 5.5673 3.39883 5.62973 3.55599 5.62973C3.71315 5.62973 3.86388 5.5673 3.975 5.45617C4.08613 5.34505 4.14856 5.19432 4.14856 5.03716V3.85202H5.33371C5.49087 3.85202 5.64159 3.78959 5.75272 3.67846C5.86385 3.56733 5.92628 3.41661 5.92628 3.25945C5.92628 3.10229 5.86385 2.95156 5.75272 2.84044C5.64159 2.72931 5.49087 2.66688 5.33371 2.66688H4.14856V1.48173C4.14856 1.32457 4.08613 1.17385 3.975 1.06272C3.86388 0.951592 3.71315 0.88916 3.55599 0.88916C3.39883 0.88916 3.24811 0.951592 3.13698 1.06272C3.02585 1.17385 2.96342 1.32457 2.96342 1.48173V2.66688H1.77828C1.62112 2.66688 1.47039 2.72931 1.35927 2.84044C1.24814 2.95156 1.18571 3.10229 1.18571 3.25945C1.18571 3.41661 1.24814 3.56733 1.35927 3.67846C1.47039 3.78959 1.62112 3.85202 1.77828 3.85202ZM11.2594 12.7406H10.6669V12.148C10.6669 11.9909 10.6044 11.8401 10.4933 11.729C10.3822 11.6179 10.2314 11.5555 10.0743 11.5555C9.91712 11.5555 9.7664 11.6179 9.65527 11.729C9.54414 11.8401 9.48171 11.9909 9.48171 12.148V12.7406H8.88914C8.73198 12.7406 8.58125 12.803 8.47013 12.9142C8.359 13.0253 8.29657 13.176 8.29657 13.3332C8.29657 13.4903 8.359 13.6411 8.47013 13.7522C8.58125 13.8633 8.73198 13.9257 8.88914 13.9257H9.48171V14.5183C9.48171 14.6755 9.54414 14.8262 9.65527 14.9373C9.7664 15.0485 9.91712 15.1109 10.0743 15.1109C10.2314 15.1109 10.3822 15.0485 10.4933 14.9373C10.6044 14.8262 10.6669 14.6755 10.6669 14.5183V13.9257H11.2594C11.4166 13.9257 11.5673 13.8633 11.6784 13.7522C11.7896 13.6411 11.852 13.4903 11.852 13.3332C11.852 13.176 11.7896 13.0253 11.6784 12.9142C11.5673 12.803 11.4166 12.7406 11.2594 12.7406ZM13.8749 4.44459L3.55599 14.7635C3.33376 14.9856 3.03243 15.1103 2.71824 15.1103C2.40406 15.1103 2.10273 14.9856 1.8805 14.7635L0.347216 13.2317C0.237137 13.1216 0.149816 12.991 0.0902396 12.8472C0.0306636 12.7034 0 12.5492 0 12.3936C0 12.2379 0.0306636 12.0838 0.0902396 11.94C0.149816 11.7962 0.237137 11.6655 0.347216 11.5555L10.6669 1.23656C10.7769 1.12648 10.9076 1.03915 11.0514 0.979579C11.1952 0.920003 11.3493 0.889339 11.505 0.889339C11.6606 0.889339 11.8148 0.920003 11.9586 0.979579C12.1024 1.03915 12.233 1.12648 12.3431 1.23656L13.8749 2.76835C13.985 2.87841 14.0723 3.00907 14.1319 3.15287C14.1914 3.29668 14.2221 3.45081 14.2221 3.60647C14.2221 3.76213 14.1914 3.91626 14.1319 4.06007C14.0723 4.20388 13.985 4.33454 13.8749 4.44459ZM13.0371 3.60684L11.5046 2.0743L9.13432 4.44459L10.6669 5.97713L13.0371 3.60684Z" fill="#AEAED4"/>
</svg>
