<svg width="32" height="32" viewBox="0 0 32 32" fill="none" xmlns="http://www.w3.org/2000/svg">
<rect width="32" height="32" rx="5.33333" fill="black"/>
<circle cx="16" cy="16" r="8" fill="white"/>
<path d="M18.2441 14.9498C18.3905 15.0491 18.5474 15.0988 18.7147 15.0988C18.882 15.0988 19.0362 15.0465 19.1774 14.9419C19.3186 14.8374 19.431 14.7014 19.5147 14.5341C19.6036 14.3615 19.648 14.1785 19.648 13.9851C19.648 13.7811 19.6062 13.5955 19.5225 13.4282C19.4389 13.2609 19.3264 13.1275 19.1853 13.0282C19.0441 12.9236 18.8872 12.8713 18.7147 12.8713C18.5421 12.8713 18.3826 12.921 18.2362 13.0204C18.0898 13.1197 17.9722 13.2557 17.8833 13.4282C17.7996 13.5955 17.7578 13.7811 17.7578 13.9851C17.7578 14.1838 17.8023 14.3694 17.8911 14.5419C17.98 14.7092 18.0977 14.8452 18.2441 14.9498Z" fill="black"/>
<path d="M12.744 14.9419C12.8904 15.0465 13.0473 15.0988 13.2146 15.0988C13.3819 15.0988 13.5362 15.0491 13.6774 14.9498C13.8238 14.8452 13.9414 14.7092 14.0303 14.5419C14.1192 14.3694 14.1636 14.1838 14.1636 13.9851C14.1636 13.7811 14.1192 13.5955 14.0303 13.4282C13.9466 13.2557 13.8316 13.1197 13.6852 13.0204C13.544 12.921 13.3872 12.8713 13.2146 12.8713C13.0421 12.8713 12.8852 12.9236 12.744 13.0282C12.6028 13.1275 12.4878 13.2609 12.3989 13.4282C12.3153 13.5955 12.2734 13.7811 12.2734 13.9851C12.2734 14.1785 12.3153 14.3615 12.3989 14.5341C12.4878 14.7014 12.6028 14.8374 12.744 14.9419Z" fill="black"/>
<path d="M14.5434 18.5796C15.0401 18.7365 15.5525 18.8149 16.0806 18.8149C16.6506 18.8149 17.1839 18.7313 17.6806 18.564C18.1826 18.3914 18.6323 18.1457 19.0297 17.8267C19.4271 17.5077 19.7591 17.126 20.0257 16.6816C20.0676 16.6136 20.0754 16.5509 20.0493 16.4934C20.0284 16.4358 19.9865 16.3992 19.9238 16.3836C19.8663 16.3679 19.7983 16.394 19.7199 16.462C19.1865 16.9221 18.6297 17.2568 18.0493 17.4659C17.4689 17.6751 16.8127 17.7796 16.0806 17.7796C15.3539 17.7796 14.6976 17.6751 14.112 17.4659C13.5316 17.2568 12.9774 16.9221 12.4493 16.462C12.3761 16.3992 12.3081 16.3757 12.2454 16.3914C12.1826 16.4019 12.1382 16.4358 12.112 16.4934C12.0911 16.5457 12.1016 16.6084 12.1434 16.6816C12.431 17.1574 12.7787 17.5548 13.1865 17.8738C13.5996 18.1875 14.0519 18.4228 14.5434 18.5796Z" fill="black"/>
</svg>
