<svg width="16" height="16" viewBox="0 0 16 16" fill="none" xmlns="http://www.w3.org/2000/svg">
<path d="M0 2C0 0.895431 0.895431 0 2 0H14C15.1046 0 16 0.895431 16 2V14C16 15.1046 15.1046 16 14 16H2C0.895431 16 0 15.1046 0 14V2Z" fill="white" fill-opacity="0.1"/>
<path d="M11.8461 6.63093L8.36901 10.108C8.32055 10.1567 8.26297 10.1952 8.19958 10.2216C8.13618 10.2479 8.06821 10.2614 7.99956 10.2614C7.93092 10.2614 7.86295 10.2479 7.79955 10.2216C7.73616 10.1952 7.67858 10.1567 7.63012 10.108L4.15303 6.63093C4.05505 6.53295 4 6.40006 4 6.26149C4 6.12292 4.05505 5.99003 4.15303 5.89205C4.25101 5.79407 4.3839 5.73902 4.52247 5.73902C4.66104 5.73902 4.79393 5.79407 4.89191 5.89205L8 9.00014L11.1081 5.89161C11.2061 5.79363 11.339 5.73859 11.4775 5.73859C11.6161 5.73859 11.749 5.79363 11.847 5.89161C11.945 5.9896 12 6.12249 12 6.26106C12 6.39962 11.945 6.53252 11.847 6.6305L11.8461 6.63093Z" fill="#AEAED4"/>
</svg>
