<svg width="16" height="16" viewBox="0 0 16 16" fill="none" xmlns="http://www.w3.org/2000/svg">
<path d="M11.8461 9.36907L8.36901 5.89197C8.32055 5.84335 8.26297 5.80477 8.19958 5.77844C8.13618 5.75212 8.06821 5.73857 7.99956 5.73857C7.93092 5.73857 7.86295 5.75212 7.79955 5.77844C7.73616 5.80477 7.67858 5.84335 7.63012 5.89197L4.15303 9.36907C4.05505 9.46705 4 9.59994 4 9.73851C4 9.87708 4.05505 10.01 4.15303 10.108C4.25101 10.2059 4.3839 10.261 4.52247 10.261C4.66104 10.261 4.79393 10.2059 4.89191 10.108L8 6.99986L11.1081 10.1084C11.2061 10.2064 11.339 10.2614 11.4775 10.2614C11.6161 10.2614 11.749 10.2064 11.847 10.1084C11.945 10.0104 12 9.87751 12 9.73894C12 9.60038 11.945 9.46748 11.847 9.3695L11.8461 9.36907Z" fill="#050519"/>
</svg>
