<svg width="16" height="16" viewBox="0 0 16 16" fill="none" xmlns="http://www.w3.org/2000/svg">
<path d="M4.07459 5.74329L1.36653 8L4.07459 10.2567C4.12995 10.301 4.17592 10.3559 4.20981 10.4182C4.24369 10.4805 4.26481 10.549 4.27193 10.6195C4.27905 10.6901 4.27202 10.7614 4.25126 10.8292C4.2305 10.897 4.19643 10.96 4.15103 11.0145C4.10563 11.069 4.04983 11.1139 3.98687 11.1465C3.92392 11.1792 3.85509 11.1989 3.7844 11.2047C3.71371 11.2104 3.64259 11.202 3.5752 11.1799C3.50781 11.1578 3.44549 11.1225 3.39191 11.0761L0.191844 8.40934C0.131798 8.35929 0.0834883 8.29664 0.0503363 8.22585C0.0171843 8.15506 0 8.07784 0 7.99967C0 7.92149 0.0171843 7.84428 0.0503363 7.77348C0.0834883 7.70269 0.131798 7.64004 0.191844 7.58999L3.39191 4.92327C3.50065 4.83274 3.6409 4.78912 3.7818 4.802C3.92271 4.81487 4.05273 4.8832 4.14326 4.99194C4.23379 5.10068 4.27741 5.24093 4.26453 5.38183C4.25165 5.52274 4.18333 5.65276 4.07459 5.74329ZM15.8082 7.58999L12.6081 4.92327C12.5542 4.87845 12.4921 4.84466 12.4252 4.82386C12.3583 4.80305 12.288 4.79562 12.2182 4.802C12.1484 4.80837 12.0806 4.82843 12.0186 4.86102C11.9566 4.89361 11.9016 4.9381 11.8567 4.99194C11.7662 5.10068 11.7226 5.24093 11.7355 5.38183C11.7483 5.52274 11.8167 5.65276 11.9254 5.74329L14.6335 8L11.9254 10.2567C11.87 10.301 11.8241 10.3559 11.7902 10.4182C11.7563 10.4805 11.7352 10.549 11.7281 10.6195C11.721 10.6901 11.728 10.7614 11.7487 10.8292C11.7695 10.897 11.8036 10.96 11.849 11.0145C11.8944 11.069 11.9502 11.1139 12.0131 11.1465C12.0761 11.1792 12.1449 11.1989 12.2156 11.2047C12.2863 11.2104 12.3574 11.202 12.4248 11.1799C12.4922 11.1578 12.5545 11.1225 12.6081 11.0761L15.8082 8.40934C15.8682 8.35929 15.9165 8.29664 15.9497 8.22585C15.9828 8.15506 16 8.07784 16 7.99967C16 7.92149 15.9828 7.84428 15.9497 7.77348C15.9165 7.70269 15.8682 7.64004 15.8082 7.58999ZM10.3154 1.63187C10.2495 1.60797 10.1796 1.59727 10.1097 1.60038C10.0397 1.60349 9.97102 1.62036 9.90757 1.65001C9.84411 1.67966 9.78712 1.72153 9.73984 1.77321C9.69257 1.82489 9.65593 1.88537 9.63203 1.95121L5.36528 13.6848C5.34128 13.7507 5.3305 13.8206 5.33356 13.8907C5.33662 13.9607 5.35346 14.0295 5.38312 14.093C5.41278 14.1565 5.45468 14.2136 5.50641 14.2609C5.55815 14.3082 5.6187 14.3449 5.68462 14.3688C5.74305 14.3896 5.80461 14.4002 5.86662 14.4001C5.97615 14.4001 6.08303 14.3664 6.17272 14.3036C6.26242 14.2407 6.33059 14.1517 6.36797 14.0488L10.6347 2.31522C10.6586 2.24938 10.6693 2.17948 10.6662 2.10951C10.6631 2.03954 10.6462 1.97086 10.6166 1.90741C10.5869 1.84395 10.5451 1.78696 10.4934 1.73968C10.4417 1.69241 10.3812 1.65577 10.3154 1.63187Z" fill="#3838F1"/>
</svg>
