<svg width="90" height="16" viewBox="0 0 90 16" fill="none" xmlns="http://www.w3.org/2000/svg">
<path d="M88.3844 3.42627C88.8795 3.42627 89.2677 3.57254 89.549 3.86508C89.8303 4.14637 89.9709 4.53455 89.9709 5.02962C89.9709 5.31091 89.9259 5.65408 89.8359 6.05914L89.1271 9.08018C88.9358 9.8903 88.6939 10.526 88.4013 10.9873C88.1088 11.4486 87.715 11.7806 87.2199 11.9831C86.7361 12.1856 86.1004 12.2869 85.3128 12.2869H82.6462L81.7854 15.9999H79.4395L82.2917 3.67943H84.6377L84.2326 5.40092C86.1229 4.08449 87.5068 3.42627 88.3844 3.42627ZM83.0512 10.5148H86.4267L87.5912 5.46843C86.6573 5.83973 85.3522 6.61609 83.6757 7.7975L83.0512 10.5148Z" fill="white"/>
<path d="M80.1043 3.6792L78.1128 12.2866H75.7668L76.1719 10.5652C74.2816 11.8816 72.8977 12.5398 72.0201 12.5398C71.525 12.5398 71.1368 12.3992 70.8555 12.1179C70.5742 11.8253 70.4336 11.4315 70.4336 10.9365C70.4336 10.6552 70.4786 10.312 70.5686 9.90694L71.2775 6.8859C71.4687 6.07578 71.7106 5.44007 72.0032 4.97876C72.2957 4.51744 72.6839 4.18552 73.1677 3.98299C73.6628 3.78046 74.3041 3.6792 75.0917 3.6792H80.1043ZM72.8133 10.4976C73.7472 10.1263 75.0524 9.34999 76.7288 8.16857L77.3533 5.45132H73.9778L72.8133 10.4976Z" fill="white"/>
<path d="M62.9474 9.02955L62.5592 10.7342C63.4143 10.6441 64.2638 10.5373 65.1077 10.4135C65.9515 10.2785 67.0092 10.0928 68.2806 9.85654L68.1962 11.8987C65.6984 12.3263 64.0444 12.54 63.2343 12.54C62.3792 12.54 61.7153 12.3375 61.2428 11.9325C60.7814 11.5161 60.5508 10.8861 60.5508 10.0422C60.5508 9.61463 60.6183 9.12519 60.7533 8.57386L61.0571 7.29118C61.2821 6.32355 61.5859 5.56407 61.9685 5.01274C62.351 4.46141 62.8517 4.06198 63.4706 3.81445C64.1007 3.55566 64.9108 3.42627 65.9009 3.42627C67.0823 3.42627 67.9712 3.6738 68.5675 4.16887C69.1639 4.66394 69.462 5.38967 69.462 6.34605C69.462 7.09991 69.3101 7.82563 69.0063 8.52323L62.9474 9.02955ZM67.5211 5.40092C66.8235 5.34466 66.1878 5.31653 65.614 5.31653C65.0402 5.31653 64.427 5.34466 63.7744 5.40092L63.3355 7.34181L67.1498 7.00427L67.5211 5.40092Z" fill="white"/>
<path d="M58.7503 11.0375C56.4324 12.0389 54.7841 12.5396 53.8052 12.5396C53.2876 12.5396 52.8826 12.4046 52.59 12.1346C52.2975 11.8645 52.1512 11.4876 52.1512 11.0038C52.1512 10.6325 52.2187 10.188 52.3537 9.67047L54.4465 1.90689H51.3242L51.763 0.134766H57.2988L54.4634 10.4806C55.5548 10.1543 56.8769 9.63671 58.4296 8.92787L58.7503 11.0375Z" fill="white"/>
<path d="M49.5923 3.42627C49.8736 3.42627 50.1042 3.43752 50.2843 3.46002L50.0142 5.82285C49.8342 5.80035 49.6373 5.7891 49.4235 5.7891C49.0185 5.7891 48.6134 5.88474 48.2083 6.07601C47.8145 6.26729 47.3251 6.61046 46.74 7.10553C46.1662 7.58935 45.4011 8.30945 44.4447 9.26583L43.7527 12.2869H41.4236L42.9932 5.45155H40.4785L40.8836 3.67943H45.7442L45.2042 5.99163C46.1268 5.0915 46.9425 4.43891 47.6514 4.03385C48.3715 3.6288 49.0185 3.42627 49.5923 3.42627Z" fill="white"/>
<path d="M32.586 9.02955L32.1979 10.7342C33.053 10.6441 33.9025 10.5373 34.7463 10.4135C35.5902 10.2785 36.6479 10.0928 37.9193 9.85654L37.8349 11.8987C35.337 12.3263 33.6831 12.54 32.873 12.54C32.0178 12.54 31.354 12.3375 30.8814 11.9325C30.4201 11.5161 30.1895 10.8861 30.1895 10.0422C30.1895 9.61463 30.257 9.12519 30.392 8.57386L30.6958 7.29118C30.9208 6.32355 31.2246 5.56407 31.6071 5.01274C31.9897 4.46141 32.4904 4.06198 33.1092 3.81445C33.7393 3.55566 34.5494 3.42627 35.5396 3.42627C36.721 3.42627 37.6099 3.6738 38.2062 4.16887C38.8025 4.66394 39.1007 5.38967 39.1007 6.34605C39.1007 7.09991 38.9488 7.82563 38.645 8.52323L32.586 9.02955ZM37.1598 5.40092C36.4622 5.34466 35.8265 5.31653 35.2527 5.31653C34.6788 5.31653 34.0656 5.34466 33.413 5.40092L32.9742 7.34181L36.7885 7.00427L37.1598 5.40092Z" fill="white"/>
<path d="M28.947 5.4513H25.2677L24.1032 10.4639C25.4421 10.0588 26.8317 9.50749 28.2719 8.80989L28.7107 10.8858C27.383 11.4484 26.3085 11.8647 25.4871 12.1347C24.6658 12.4048 23.94 12.5398 23.31 12.5398C22.8036 12.5398 22.4098 12.3991 22.1285 12.1179C21.8585 11.8366 21.7235 11.4428 21.7235 10.9364C21.7235 10.6551 21.7741 10.3063 21.8754 9.89004L22.9049 5.4513H20.2383L20.6433 3.67918H23.31L23.7656 1.73828H26.1285L25.6728 3.67918H29.3521L28.947 5.4513Z" fill="white"/>
<path d="M17.4439 3.42627C17.9502 3.42627 18.344 3.57254 18.6253 3.86508C18.9066 4.14637 19.0473 4.54017 19.0473 5.0465C19.0473 5.31653 19.0023 5.65408 18.9123 6.05914L17.4608 12.2869H15.1148L16.7013 5.50218C15.8237 5.85098 14.5298 6.64422 12.8195 7.88189L11.8069 12.2869H9.46094L11.4525 3.67943H13.7984L13.4102 5.35029C15.2442 4.06761 16.5888 3.42627 17.4439 3.42627Z" fill="white"/>
<path d="M8.48931 11.0378C6.17148 12.0392 4.52313 12.5399 3.54424 12.5399C3.02667 12.5399 2.62162 12.4049 2.32907 12.1348C2.03653 11.8648 1.89026 11.4878 1.89026 11.004C1.89026 10.6327 1.95777 10.1883 2.09279 9.67072L3.2067 5.45138H0L0.438811 3.67926H6.04209L4.20246 10.4808C5.29386 10.1545 6.61592 9.63697 8.16864 8.92812L8.48931 11.0378ZM6.29525 2.46409H4.23622L4.89443 0H6.95347L6.29525 2.46409Z" fill="white"/>
</svg>
