<svg width="8" height="6" viewBox="0 0 8 6" fill="none" xmlns="http://www.w3.org/2000/svg">
<path d="M7.8461 1.63087L4.36901 5.10797C4.32055 5.15659 4.26297 5.19517 4.19958 5.2215C4.13618 5.24782 4.06821 5.26137 3.99956 5.26137C3.93092 5.26137 3.86295 5.24782 3.79955 5.2215C3.73616 5.19517 3.67858 5.15659 3.63012 5.10797L0.153028 1.63087C0.0550458 1.53289 -1.46004e-09 1.4 0 1.26143C1.46005e-09 1.12286 0.0550458 0.98997 0.153028 0.891988C0.25101 0.794006 0.383902 0.73896 0.522469 0.73896C0.661037 0.73896 0.793929 0.794006 0.891911 0.891988L4 4.00008L7.10809 0.891553C7.20607 0.793571 7.33896 0.738525 7.47753 0.738525C7.6161 0.738525 7.74899 0.793571 7.84697 0.891553C7.94495 0.989535 8 1.12243 8 1.26099C8 1.39956 7.94495 1.53245 7.84697 1.63044L7.8461 1.63087Z" fill="#AEAED4"/>
</svg>
