<svg width="16" height="16" viewBox="0 0 16 16" fill="none" xmlns="http://www.w3.org/2000/svg">
<rect width="16" height="16" rx="2" fill="white" fill-opacity="0.1"/>
<path d="M11.8461 6.63087L8.36901 10.108C8.32055 10.1566 8.26297 10.1952 8.19958 10.2215C8.13618 10.2478 8.06821 10.2614 7.99956 10.2614C7.93092 10.2614 7.86295 10.2478 7.79955 10.2215C7.73616 10.1952 7.67858 10.1566 7.63012 10.108L4.15303 6.63087C4.05505 6.53289 4 6.4 4 6.26143C4 6.12286 4.05505 5.98997 4.15303 5.89199C4.25101 5.79401 4.3839 5.73896 4.52247 5.73896C4.66104 5.73896 4.79393 5.79401 4.89191 5.89199L8 9.00008L11.1081 5.89155C11.2061 5.79357 11.339 5.73853 11.4775 5.73853C11.6161 5.73853 11.749 5.79357 11.847 5.89155C11.945 5.98954 12 6.12243 12 6.26099C12 6.39956 11.945 6.53245 11.847 6.63044L11.8461 6.63087Z" fill="#AEAED4"/>
</svg>
