<svg width="16" height="15" viewBox="0 0 16 15" fill="none" xmlns="http://www.w3.org/2000/svg">
<path id="Vector" opacity="0.3" d="M4.8941 6.39779C4.8941 6.17314 4.98335 5.95768 5.1422 5.79883C5.30105 5.63997 5.51651 5.55073 5.74116 5.55073H10.2588C10.4835 5.55073 10.6989 5.63997 10.8578 5.79883C11.0166 5.95768 11.1059 6.17314 11.1059 6.39779C11.1059 6.62244 11.0166 6.8379 10.8578 6.99675C10.6989 7.1556 10.4835 7.24485 10.2588 7.24485H5.74116C5.51651 7.24485 5.30105 7.1556 5.1422 6.99675C4.98335 6.8379 4.8941 6.62244 4.8941 6.39779ZM7.15292 8.37426H5.74116C5.51651 8.37426 5.30105 8.4635 5.1422 8.62236C4.98335 8.78121 4.8941 8.99666 4.8941 9.22132C4.8941 9.44597 4.98335 9.66142 5.1422 9.82028C5.30105 9.97913 5.51651 10.0684 5.74116 10.0684H7.15292C7.37758 10.0684 7.59303 9.97913 7.75189 9.82028C7.91074 9.66142 7.99998 9.44597 7.99998 9.22132C7.99998 8.99666 7.91074 8.78121 7.75189 8.62236C7.59303 8.4635 7.37758 8.37426 7.15292 8.37426ZM15.0588 2.1625V9.83473C15.0593 10.0202 15.023 10.2039 14.952 10.3752C14.881 10.5466 14.7767 10.7021 14.6452 10.8328L11.0233 14.4547C10.8925 14.5863 10.737 14.6906 10.5657 14.7616C10.3943 14.8326 10.2106 14.8689 10.0252 14.8684H2.35293C1.9785 14.8684 1.61942 14.7196 1.35466 14.4549C1.0899 14.1901 0.941162 13.831 0.941162 13.4566V2.1625C0.941162 1.78807 1.0899 1.42899 1.35466 1.16423C1.61942 0.899471 1.9785 0.750732 2.35293 0.750732H13.647C14.0215 0.750732 14.3806 0.899471 14.6453 1.16423C14.9101 1.42899 15.0588 1.78807 15.0588 2.1625ZM2.63528 13.1743H9.12939V9.78602C9.12939 9.56137 9.21864 9.34592 9.37749 9.18706C9.53635 9.02821 9.7518 8.93896 9.97645 8.93896H13.3647V2.44485H2.63528V13.1743ZM12.447 10.6331H10.8235V12.2566L12.447 10.6331Z" fill="white"/>
</svg>
