<svg width="20" height="20" viewBox="0 0 20 20" fill="none" xmlns="http://www.w3.org/2000/svg">
<g id="Logo">
<path id="Shape" fill-rule="evenodd" clip-rule="evenodd" d="M19.7999 10.2273C19.7999 9.51825 19.7363 8.83643 19.6181 8.18188H10.2V12.0501H15.5818C15.35 13.3001 14.6454 14.3592 13.5863 15.0682V17.5773H16.8181C18.709 15.8364 19.7999 13.2728 19.7999 10.2273Z" fill="#4285F4"/>
<path id="Shape_2" fill-rule="evenodd" clip-rule="evenodd" d="M10.1998 19.9999C12.8998 19.9999 15.1634 19.1044 16.818 17.5772L13.5862 15.0681C12.6907 15.6681 11.5452 16.0226 10.1998 16.0226C7.59525 16.0226 5.3907 14.2635 4.60434 11.8999H1.26343V14.4908C2.90888 17.759 6.2907 19.9999 10.1998 19.9999Z" fill="#34A853"/>
<path id="Shape_3" fill-rule="evenodd" clip-rule="evenodd" d="M4.6045 11.8999C4.4045 11.2999 4.29086 10.659 4.29086 9.99994C4.29086 9.34085 4.4045 8.69994 4.6045 8.09994V5.50903H1.26359C0.586315 6.85903 0.199951 8.38631 0.199951 9.99994C0.199951 11.6136 0.586315 13.1409 1.26359 14.4909L4.6045 11.8999Z" fill="#FBBC05"/>
<path id="Shape_4" fill-rule="evenodd" clip-rule="evenodd" d="M10.1998 3.97727C11.668 3.97727 12.9862 4.48182 14.0225 5.47273L16.8907 2.60455C15.1589 0.990909 12.8952 0 10.1998 0C6.2907 0 2.90888 2.24091 1.26343 5.50909L4.60434 8.1C5.3907 5.73636 7.59525 3.97727 10.1998 3.97727Z" fill="#EA4335"/>
</g>
</svg>
