<svg width="136" height="47" viewBox="0 0 136 47" fill="none" xmlns="http://www.w3.org/2000/svg">
<path fill-rule="evenodd" clip-rule="evenodd" d="M5.81808 18.8101C7.28688 18.8101 9.76021 18.0591 13.2381 16.557L12.7569 13.3924C10.4271 14.4557 8.44335 15.2321 6.80572 15.7215L9.56606 5.51899H1.15843L0.5 8.17722H5.31159L3.6402 14.5063C3.4376 15.2827 3.33631 15.9494 3.33631 16.5063C3.33631 17.2321 3.55578 17.7975 3.99474 18.2025C4.43369 18.6076 5.04147 18.8101 5.81808 18.8101ZM6.85637 3.6962H9.94592L10.9336 0H7.84401L6.85637 3.6962ZM88.6546 16.557C85.1768 18.0591 82.7035 18.8102 81.2346 18.8102C80.458 18.8102 79.8503 18.6076 79.4113 18.2026C78.9724 17.7975 78.7529 17.2321 78.7529 16.5064C78.7529 15.9494 78.8542 15.2827 79.0568 14.5064L82.197 2.8608H77.512L78.1704 0.202576H86.4768L82.2223 15.7216C83.8599 15.2321 85.8437 14.4557 88.1735 13.3925L88.6546 16.557ZM94.368 16.1013L94.9505 13.5443L104.042 12.7849C104.498 11.7384 104.726 10.6498 104.726 9.51903C104.726 8.08443 104.278 6.99582 103.383 6.25321C102.489 5.51059 101.155 5.13928 99.3822 5.13928C97.8965 5.13928 96.6809 5.33337 95.7355 5.72156C94.807 6.09287 94.0557 6.69203 93.4817 7.51903C92.9077 8.34603 92.4518 9.48528 92.1142 10.9368L91.6583 12.8608C91.4557 13.6878 91.3544 14.422 91.3544 15.0633C91.3544 16.3292 91.7005 17.2743 92.3927 17.8988C93.1018 18.5064 94.0979 18.8102 95.381 18.8102C96.5965 18.8102 99.0783 18.4895 102.826 17.8481L102.953 14.7849C101.045 15.1393 99.4582 15.4178 98.192 15.6203C96.9258 15.806 95.6511 15.9663 94.368 16.1013ZM98.9517 7.97473C99.8127 7.97473 100.767 8.01692 101.813 8.10131L101.256 10.5064L95.5329 11.0127L96.1914 8.10131C97.1706 8.01692 98.0907 7.97473 98.9517 7.97473ZM133.12 5.13928C133.862 5.13928 134.445 5.35869 134.867 5.79751C135.289 6.21945 135.5 6.80173 135.5 7.54435C135.5 7.96629 135.432 8.48106 135.297 9.08865L134.234 13.6203C133.947 14.8355 133.584 15.7891 133.145 16.4811C132.706 17.173 132.115 17.6709 131.372 17.9747C130.646 18.2785 129.692 18.4304 128.511 18.4304H124.509L123.218 24H119.698L123.978 5.51903H127.498L126.89 8.10131C129.726 6.12662 131.803 5.13928 133.12 5.13928ZM125.117 15.7722H130.182L131.929 8.20257C130.528 8.75954 128.57 9.92409 126.054 11.6962L125.117 15.7722ZM120.695 5.51898L117.707 18.4304H114.187L114.795 15.8481C111.958 17.8228 109.882 18.8101 108.565 18.8101C107.822 18.8101 107.24 18.5992 106.818 18.1772C106.396 17.7384 106.185 17.1477 106.185 16.4051C106.185 15.9831 106.252 15.4684 106.387 14.8608L107.451 10.3291C107.738 9.11392 108.101 8.16033 108.54 7.46835C108.979 6.77637 109.561 6.27848 110.287 5.97468C111.03 5.67088 111.992 5.51898 113.174 5.51898H120.695ZM109.755 15.7468C111.156 15.1899 113.115 14.0253 115.63 12.2532L116.567 8.17721H111.503L109.755 15.7468ZM75.9518 5.18992C75.6817 5.15616 75.3356 5.13928 74.9135 5.13928C74.0525 5.13928 73.0817 5.44308 72.0012 6.05067C70.9376 6.65827 69.7136 7.63717 68.3292 8.98738L69.1396 5.51903H61.8462L61.2385 8.17726H65.0118L62.6566 18.4304H66.1514L67.1896 13.8988C68.6247 12.4642 69.7727 11.384 70.6337 10.6583C71.5116 9.91566 72.246 9.40089 72.8369 9.11397C73.4447 8.82705 74.0525 8.68359 74.6603 8.68359C74.981 8.68359 75.2765 8.70046 75.5466 8.73422L75.9518 5.18992ZM49.3966 13.5443L48.8142 16.1013C50.0973 15.9663 51.3719 15.806 52.6381 15.6203C53.9043 15.4178 55.4913 15.1393 57.3991 14.7849L57.2725 17.8481C53.5245 18.4895 51.0427 18.8102 49.8271 18.8102C48.544 18.8102 47.548 18.5064 46.8389 17.8988C46.1467 17.2743 45.8006 16.3292 45.8006 15.0633C45.8006 14.422 45.9019 13.6878 46.1045 12.8608L46.5603 10.9368C46.898 9.48528 47.3538 8.34603 47.9278 7.51903C48.5018 6.69203 49.2531 6.09287 50.1817 5.72156C51.1271 5.33337 52.3427 5.13928 53.8284 5.13928C55.6011 5.13928 56.9348 5.51059 57.8296 6.25321C58.7244 6.99582 59.1718 8.08443 59.1718 9.51903C59.1718 10.6498 58.9438 11.7384 58.488 12.7849L49.3966 13.5443ZM56.2595 8.10131C55.2127 8.01692 54.2589 7.97473 53.3979 7.97473C52.5368 7.97473 51.6167 8.01692 50.6375 8.10131L49.9791 11.0127L55.7024 10.5064L56.2595 8.10131ZM38.4158 8.17723H43.9365L44.5443 5.519H39.0236L39.7074 2.6076H36.162L35.4782 5.519H31.477L30.8692 8.17723H34.8705L33.3257 14.8355C33.1737 15.4599 33.0978 15.9831 33.0978 16.4051C33.0978 17.1646 33.3004 17.7553 33.7055 18.1772C34.1276 18.5992 34.7185 18.8101 35.4782 18.8101C36.4237 18.8101 37.5126 18.6076 38.745 18.2025C39.9775 17.7975 41.5898 17.173 43.582 16.3291L42.9235 13.2152C40.7625 14.2616 38.6775 15.0886 36.6685 15.6962L38.4158 8.17723ZM26.6753 5.13928C27.4351 5.13928 28.0259 5.35869 28.448 5.79751C28.8701 6.21945 29.0811 6.81017 29.0811 7.56966C29.0811 7.97473 29.0136 8.48106 28.8785 9.08865L26.7007 18.4304H23.1806L25.5611 8.25321C24.2442 8.77641 22.3027 9.96629 19.7365 11.8228L18.2171 18.4304H14.697L17.6852 5.51903H21.2053L20.6228 8.02536C23.3747 6.10131 25.3922 5.13928 26.6753 5.13928Z" fill="#F5F5FF"/>
<path d="M56.9357 37.94L55.5437 44H54.2717L54.6197 42.524C53.9237 43.02 53.2797 43.42 52.6877 43.724C52.1037 44.02 51.6397 44.168 51.2957 44.168C51.0157 44.168 50.7957 44.088 50.6357 43.928C50.4757 43.768 50.3957 43.544 50.3957 43.256C50.3957 43.064 50.4357 42.796 50.5157 42.452L51.0797 40.016C51.1997 39.488 51.3557 39.076 51.5477 38.78C51.7477 38.476 52.0077 38.26 52.3277 38.132C52.6557 38.004 53.0837 37.94 53.6117 37.94H56.9357ZM51.6557 43.016C52.0317 42.888 52.5157 42.648 53.1077 42.296C53.7077 41.936 54.3197 41.528 54.9437 41.072L55.4357 38.996H52.5797L51.6557 43.016ZM63.507 43.064C61.875 43.8 60.699 44.168 59.979 44.168C59.659 44.168 59.411 44.092 59.235 43.94C59.067 43.78 58.983 43.556 58.983 43.268C58.983 43.044 59.031 42.74 59.127 42.356L60.723 36.38H58.323L58.575 35.36H62.283L60.195 43.1C61.003 42.884 62.043 42.488 63.315 41.912L63.507 43.064ZM70.3183 37.772C70.5983 37.772 70.8183 37.852 70.9783 38.012C71.1383 38.172 71.2183 38.396 71.2183 38.684C71.2183 38.876 71.1783 39.144 71.0983 39.488L70.5343 41.924C70.4143 42.452 70.2543 42.868 70.0543 43.172C69.8623 43.468 69.6023 43.68 69.2743 43.808C68.9543 43.936 68.5303 44 68.0023 44H65.9503L65.3383 46.64H64.0663L66.0703 37.94H67.3423L67.0063 39.416C67.6943 38.92 68.3303 38.524 68.9143 38.228C69.4983 37.924 69.9663 37.772 70.3183 37.772ZM69.0343 42.944L69.9583 38.924C69.5823 39.052 69.0983 39.292 68.5063 39.644C67.9143 39.996 67.3023 40.4 66.6703 40.856L66.1903 42.944H69.0343ZM77.4417 37.772C77.7297 37.772 77.9537 37.852 78.1137 38.012C78.2737 38.172 78.3537 38.396 78.3537 38.684C78.3537 38.844 78.3057 39.136 78.2097 39.56L77.1777 44H75.9057L77.0937 38.912C76.4617 39.096 75.3857 39.756 73.8657 40.892L73.1457 44H71.8737L73.8657 35.36H75.1377L74.2017 39.428C75.7297 38.324 76.8097 37.772 77.4417 37.772ZM85.717 37.94L84.325 44H83.053L83.401 42.524C82.705 43.02 82.061 43.42 81.469 43.724C80.885 44.02 80.421 44.168 80.077 44.168C79.797 44.168 79.577 44.088 79.417 43.928C79.257 43.768 79.177 43.544 79.177 43.256C79.177 43.064 79.217 42.796 79.297 42.452L79.861 40.016C79.981 39.488 80.137 39.076 80.329 38.78C80.529 38.476 80.789 38.26 81.109 38.132C81.437 38.004 81.865 37.94 82.393 37.94H85.717ZM80.437 43.016C80.813 42.888 81.297 42.648 81.889 42.296C82.489 41.936 83.101 41.528 83.725 41.072L84.217 38.996H81.361L80.437 43.016Z" fill="#C9CFF3"/>
</svg>
