<svg width="181" height="36" viewBox="0 0 181 36" fill="none" xmlns="http://www.w3.org/2000/svg">
<path fill-rule="evenodd" clip-rule="evenodd" d="M5.31808 24.8101C6.78688 24.8101 9.26021 24.0591 12.7381 22.557L12.2569 19.3924C9.92708 20.4557 7.94335 21.2321 6.30572 21.7215L9.06606 11.519H0.658428L0 14.1772H4.81159L3.1402 20.5063C2.9376 21.2827 2.83631 21.9494 2.83631 22.5063C2.83631 23.2321 3.05578 23.7975 3.49474 24.2025C3.93369 24.6076 4.54147 24.8101 5.31808 24.8101ZM6.35637 9.6962H9.44592L10.4336 6H7.34401L6.35637 9.6962ZM88.1546 22.557C84.6768 24.0591 82.2035 24.8102 80.7346 24.8102C79.958 24.8102 79.3503 24.6076 78.9113 24.2026C78.4724 23.7975 78.2529 23.2321 78.2529 22.5064C78.2529 21.9494 78.3542 21.2827 78.5568 20.5064L81.697 8.8608H77.012L77.6704 6.20258H85.9768L81.7223 21.7216C83.3599 21.2321 85.3437 20.4557 87.6735 19.3925L88.1546 22.557ZM93.868 22.1013L94.4505 19.5443L103.542 18.7849C103.998 17.7384 104.226 16.6498 104.226 15.519C104.226 14.0844 103.778 12.9958 102.883 12.2532C101.989 11.5106 100.655 11.1393 98.8822 11.1393C97.3965 11.1393 96.1809 11.3334 95.2355 11.7216C94.307 12.0929 93.5557 12.692 92.9817 13.519C92.4077 14.346 91.9518 15.4853 91.6142 16.9368L91.1583 18.8608C90.9557 19.6878 90.8544 20.422 90.8544 21.0633C90.8544 22.3292 91.2005 23.2743 91.8927 23.8988C92.6018 24.5064 93.5979 24.8102 94.881 24.8102C96.0965 24.8102 98.5783 24.4895 102.326 23.8481L102.453 20.7849C100.545 21.1393 98.9582 21.4178 97.692 21.6203C96.4258 21.806 95.1511 21.9663 93.868 22.1013ZM98.4517 13.9747C99.3127 13.9747 100.267 14.0169 101.313 14.1013L100.756 16.5064L95.0329 17.0127L95.6914 14.1013C96.6706 14.0169 97.5907 13.9747 98.4517 13.9747ZM132.62 11.1393C133.362 11.1393 133.945 11.3587 134.367 11.7975C134.789 12.2195 135 12.8017 135 13.5443C135 13.9663 134.932 14.4811 134.797 15.0887L133.734 19.6203C133.447 20.8355 133.084 21.7891 132.645 22.4811C132.206 23.173 131.615 23.6709 130.872 23.9747C130.146 24.2785 129.192 24.4304 128.011 24.4304H124.009L122.718 30H119.198L123.478 11.519H126.998L126.39 14.1013C129.226 12.1266 131.303 11.1393 132.62 11.1393ZM124.617 21.7722H129.682L131.429 14.2026C130.028 14.7595 128.07 15.9241 125.554 17.6962L124.617 21.7722ZM120.195 11.519L117.207 24.4304H113.687L114.295 21.8481C111.458 23.8228 109.382 24.8101 108.065 24.8101C107.322 24.8101 106.74 24.5992 106.318 24.1772C105.896 23.7384 105.685 23.1477 105.685 22.4051C105.685 21.9831 105.752 21.4684 105.887 20.8608L106.951 16.3291C107.238 15.1139 107.601 14.1603 108.04 13.4683C108.479 12.7764 109.061 12.2785 109.787 11.9747C110.53 11.6709 111.492 11.519 112.674 11.519H120.195ZM109.255 21.7468C110.656 21.1899 112.615 20.0253 115.13 18.2532L116.067 14.1772H111.003L109.255 21.7468ZM75.4518 11.1899C75.1817 11.1562 74.8356 11.1393 74.4135 11.1393C73.5525 11.1393 72.5817 11.4431 71.5012 12.0507C70.4376 12.6583 69.2136 13.6372 67.8292 14.9874L68.6396 11.519H61.3462L60.7385 14.1773H64.5118L62.1566 24.4304H65.6514L66.6896 19.8988C68.1247 18.4642 69.2727 17.384 70.1337 16.6583C71.0116 15.9157 71.746 15.4009 72.3369 15.114C72.9447 14.827 73.5525 14.6836 74.1603 14.6836C74.481 14.6836 74.7765 14.7005 75.0466 14.7342L75.4518 11.1899ZM48.8966 19.5443L48.3142 22.1013C49.5973 21.9663 50.8719 21.806 52.1381 21.6203C53.4043 21.4178 54.9913 21.1393 56.8991 20.7849L56.7725 23.8481C53.0245 24.4895 50.5427 24.8102 49.3271 24.8102C48.044 24.8102 47.048 24.5064 46.3389 23.8988C45.6467 23.2743 45.3006 22.3292 45.3006 21.0633C45.3006 20.422 45.4019 19.6878 45.6045 18.8608L46.0603 16.9368C46.398 15.4853 46.8538 14.346 47.4278 13.519C48.0018 12.692 48.7531 12.0929 49.6817 11.7216C50.6271 11.3334 51.8427 11.1393 53.3284 11.1393C55.1011 11.1393 56.4348 11.5106 57.3296 12.2532C58.2244 12.9958 58.6718 14.0844 58.6718 15.519C58.6718 16.6498 58.4438 17.7384 57.988 18.7849L48.8966 19.5443ZM55.7595 14.1013C54.7127 14.0169 53.7589 13.9747 52.8979 13.9747C52.0368 13.9747 51.1167 14.0169 50.1375 14.1013L49.4791 17.0127L55.2024 16.5064L55.7595 14.1013ZM37.9158 14.1772H43.4365L44.0443 11.519H38.5236L39.2074 8.6076H35.662L34.9782 11.519H30.977L30.3692 14.1772H34.3705L32.8257 20.8355C32.6737 21.4599 32.5978 21.9831 32.5978 22.4051C32.5978 23.1646 32.8004 23.7553 33.2055 24.1772C33.6276 24.5992 34.2185 24.8101 34.9782 24.8101C35.9237 24.8101 37.0126 24.6076 38.245 24.2025C39.4775 23.7975 41.0898 23.173 43.082 22.3291L42.4235 19.2152C40.2625 20.2616 38.1775 21.0886 36.1685 21.6962L37.9158 14.1772ZM26.1753 11.1393C26.9351 11.1393 27.5259 11.3587 27.948 11.7975C28.3701 12.2195 28.5811 12.8102 28.5811 13.5697C28.5811 13.9747 28.5136 14.4811 28.3785 15.0887L26.2007 24.4304H22.6806L25.0611 14.2532C23.7442 14.7764 21.8027 15.9663 19.2365 17.8228L17.7171 24.4304H14.197L17.1852 11.519H20.7053L20.1228 14.0254C22.8747 12.1013 24.8922 11.1393 26.1753 11.1393Z" fill="#3838F1"/>
<path d="M151.936 15.94L150.544 22H149.272L149.62 20.524C148.924 21.02 148.28 21.42 147.688 21.724C147.104 22.02 146.64 22.168 146.296 22.168C146.016 22.168 145.796 22.088 145.636 21.928C145.476 21.768 145.396 21.544 145.396 21.256C145.396 21.064 145.436 20.796 145.516 20.452L146.08 18.016C146.2 17.488 146.356 17.076 146.548 16.78C146.748 16.476 147.008 16.26 147.328 16.132C147.656 16.004 148.084 15.94 148.612 15.94H151.936ZM146.656 21.016C147.032 20.888 147.516 20.648 148.108 20.296C148.708 19.936 149.32 19.528 149.944 19.072L150.436 16.996H147.58L146.656 21.016ZM158.507 21.064C156.875 21.8 155.699 22.168 154.979 22.168C154.659 22.168 154.411 22.092 154.235 21.94C154.067 21.78 153.983 21.556 153.983 21.268C153.983 21.044 154.031 20.74 154.127 20.356L155.723 14.38H153.323L153.575 13.36H157.283L155.195 21.1C156.003 20.884 157.043 20.488 158.315 19.912L158.507 21.064ZM165.318 15.772C165.598 15.772 165.818 15.852 165.978 16.012C166.138 16.172 166.218 16.396 166.218 16.684C166.218 16.876 166.178 17.144 166.098 17.488L165.534 19.924C165.414 20.452 165.254 20.868 165.054 21.172C164.862 21.468 164.602 21.68 164.274 21.808C163.954 21.936 163.53 22 163.002 22H160.95L160.338 24.64H159.066L161.07 15.94H162.342L162.006 17.416C162.694 16.92 163.33 16.524 163.914 16.228C164.498 15.924 164.966 15.772 165.318 15.772ZM164.034 20.944L164.958 16.924C164.582 17.052 164.098 17.292 163.506 17.644C162.914 17.996 162.302 18.4 161.67 18.856L161.19 20.944H164.034ZM172.442 15.772C172.73 15.772 172.954 15.852 173.114 16.012C173.274 16.172 173.354 16.396 173.354 16.684C173.354 16.844 173.306 17.136 173.21 17.56L172.178 22H170.906L172.094 16.912C171.462 17.096 170.386 17.756 168.866 18.892L168.146 22H166.874L168.866 13.36H170.138L169.202 17.428C170.73 16.324 171.81 15.772 172.442 15.772ZM180.717 15.94L179.325 22H178.053L178.401 20.524C177.705 21.02 177.061 21.42 176.469 21.724C175.885 22.02 175.421 22.168 175.077 22.168C174.797 22.168 174.577 22.088 174.417 21.928C174.257 21.768 174.177 21.544 174.177 21.256C174.177 21.064 174.217 20.796 174.297 20.452L174.861 18.016C174.981 17.488 175.137 17.076 175.329 16.78C175.529 16.476 175.789 16.26 176.109 16.132C176.437 16.004 176.865 15.94 177.393 15.94H180.717ZM175.437 21.016C175.813 20.888 176.297 20.648 176.889 20.296C177.489 19.936 178.101 19.528 178.725 19.072L179.217 16.996H176.361L175.437 21.016Z" fill="#8282B6"/>
</svg>
