<svg width="16" height="16" viewBox="0 0 16 16" fill="none" xmlns="http://www.w3.org/2000/svg">
<path fill-rule="evenodd" clip-rule="evenodd" d="M3.5 4C3.5 3.72386 3.72386 3.5 4 3.5H8.03809C8.31423 3.5 8.53809 3.27614 8.53809 3C8.53809 2.72386 8.31423 2.5 8.03809 2.5H4C3.17157 2.5 2.5 3.17157 2.5 4V12C2.5 12.8284 3.17157 13.5 4 13.5H8C8.27614 13.5 8.5 13.2761 8.5 13C8.5 12.7239 8.27614 12.5 8 12.5H4C3.72386 12.5 3.5 12.2761 3.5 12V4ZM13.3536 7.64645L10.1716 4.46447C9.97631 4.2692 9.65973 4.2692 9.46447 4.46447C9.2692 4.65973 9.2692 4.97631 9.46447 5.17157L11.7929 7.5H7C6.72386 7.5 6.5 7.72386 6.5 8C6.5 8.27614 6.72386 8.5 7 8.5H11.7929L9.46447 10.8284C9.2692 11.0237 9.2692 11.3403 9.46447 11.5355C9.65973 11.7308 9.97631 11.7308 10.1716 11.5355L13.3536 8.35355C13.5488 8.15829 13.5488 7.84171 13.3536 7.64645Z" fill="#EDEDFF"/>
</svg>
