<svg width="16" height="16" viewBox="0 0 16 16" fill="none" xmlns="http://www.w3.org/2000/svg">
<path fill-rule="evenodd" clip-rule="evenodd" d="M3.5 4C3.5 3.72386 3.72386 3.5 4 3.5H8.03809C8.31423 3.5 8.53809 3.27614 8.53809 3C8.53809 2.72386 8.31423 2.5 8.03809 2.5H4C3.17157 2.5 2.5 3.17157 2.5 4V12C2.5 12.8284 3.17157 13.5 4 13.5H12C12.8284 13.5 13.5 12.8284 13.5 12V8.5C13.5 8.22386 13.2761 8 13 8C12.7239 8 12.5 8.22386 12.5 8.5V12C12.5 12.2761 12.2761 12.5 12 12.5H4C3.72386 12.5 3.5 12.2761 3.5 12V4ZM5.5 5C5.22386 5 5 5.22386 5 5.5C5 5.77614 5.22386 6 5.5 6H8.5C8.77614 6 9 5.77614 9 5.5C9 5.22386 8.77614 5 8.5 5H5.5ZM5 8.5C5 8.22386 5.22386 8 5.5 8H6.5C6.77614 8 7 8.22386 7 8.5C7 8.77614 6.77614 9 6.5 9H5.5C5.22386 9 5 8.77614 5 8.5ZM10.9192 4.37372L7.64645 7.64645C7.45118 7.84171 7.45118 8.15829 7.64645 8.35355C7.84171 8.54882 8.15829 8.54882 8.35355 8.35355L11.6263 5.08083C11.8215 4.88556 11.8215 4.56898 11.6263 4.37372C11.431 4.17846 11.1144 4.17846 10.9192 4.37372ZM11.7374 3.55554C11.5421 3.7508 11.5421 4.06738 11.7374 4.26264C11.9326 4.45791 12.2492 4.45791 12.4445 4.26264L12.8536 3.85355C13.0488 3.65829 13.0488 3.34171 12.8536 3.14645C12.6583 2.95118 12.3417 2.95118 12.1464 3.14645L11.7374 3.55554Z" fill="#EDEDFF"/>
</svg>
