<svg width="56" height="34" viewBox="0 0 56 34" fill="none" xmlns="http://www.w3.org/2000/svg">
<rect width="56" height="34" rx="4" fill="#222224"/>
<path fill-rule="evenodd" clip-rule="evenodd" d="M27.5 22C27.5 22.2761 27.7239 22.5 28 22.5C28.2761 22.5 28.5 22.2761 28.5 22V17.5H33C33.2761 17.5 33.5 17.2761 33.5 17C33.5 16.7239 33.2761 16.5 33 16.5H28.5V12C28.5 11.7239 28.2761 11.5 28 11.5C27.7239 11.5 27.5 11.7239 27.5 12V16.5H23C22.7239 16.5 22.5 16.7239 22.5 17C22.5 17.2761 22.7239 17.5 23 17.5H27.5V22Z" fill="#EDEDFF"/>
</svg>
