<svg width="32" height="32" viewBox="0 0 32 32" fill="none" xmlns="http://www.w3.org/2000/svg">
<path d="M20.3994 14.4015C20.3999 13.6602 20.213 12.9308 19.8561 12.2811C19.4991 11.6313 18.9838 11.0823 18.3579 10.685C17.7321 10.2877 17.0159 10.0551 16.2761 10.0086C15.5362 9.9622 14.7966 10.1035 14.126 10.4194C13.4553 10.7353 12.8754 11.2156 12.44 11.8156C12.0047 12.4156 11.728 13.1159 11.6358 13.8515C11.5435 14.587 11.6386 15.334 11.9123 16.0229C12.186 16.7119 12.6293 17.3205 13.2012 17.7922V21.5998C13.2011 21.668 13.2185 21.7351 13.2517 21.7947C13.2849 21.8543 13.3328 21.9044 13.3908 21.9402C13.4488 21.9761 13.515 21.9965 13.5831 21.9996C13.6513 22.0027 13.719 21.9882 13.78 21.9577L16.0005 20.85L18.2215 21.9602C18.2771 21.9869 18.3382 22.0004 18.3999 21.9997C18.506 21.9997 18.6077 21.9576 18.6827 21.8826C18.7577 21.8076 18.7998 21.7059 18.7998 21.5998V17.7922C19.3002 17.3801 19.7031 16.8624 19.9796 16.2762C20.2562 15.6899 20.3996 15.0497 20.3994 14.4015ZM12.4014 14.4015C12.4014 13.6897 12.6125 12.9939 13.0079 12.402C13.4034 11.8101 13.9655 11.3488 14.6232 11.0764C15.2808 10.804 16.0045 10.7327 16.7027 10.8716C17.4008 11.0104 18.0421 11.3532 18.5455 11.8566C19.0488 12.3599 19.3916 13.0012 19.5305 13.6994C19.6693 14.3976 19.5981 15.1212 19.3257 15.7789C19.0533 16.4365 18.5919 16.9986 18.0001 17.3941C17.4082 17.7896 16.7123 18.0007 16.0005 18.0007C15.0463 17.9996 14.1314 17.6201 13.4567 16.9454C12.782 16.2706 12.4024 15.3558 12.4014 14.4015ZM18 20.953L16.179 20.0427C16.1234 20.0149 16.0621 20.0004 16 20.0004C15.9379 20.0004 15.8766 20.0149 15.821 20.0427L14.001 20.953V18.3191C14.62 18.6355 15.3053 18.8005 16.0005 18.8005C16.6957 18.8005 17.381 18.6355 18 18.3191V20.953ZM16.0005 17.2009C16.5542 17.2009 17.0954 17.0367 17.5557 16.7291C18.0161 16.4215 18.3749 15.9843 18.5867 15.4728C18.7986 14.9613 18.854 14.3984 18.746 13.8554C18.638 13.3124 18.3714 12.8136 17.9799 12.4221C17.5884 12.0306 17.0896 11.764 16.5466 11.656C16.0036 11.548 15.4408 11.6034 14.9292 11.8153C14.4177 12.0272 13.9805 12.386 13.6729 12.8463C13.3654 13.3067 13.2012 13.8479 13.2012 14.4015C13.202 15.1437 13.4972 15.8553 14.022 16.3801C14.5468 16.9049 15.2583 17.2001 16.0005 17.2009ZM16.0005 12.402C16.396 12.402 16.7826 12.5193 17.1114 12.739C17.4402 12.9587 17.6965 13.271 17.8478 13.6364C17.9992 14.0017 18.0387 14.4038 17.9616 14.7916C17.8844 15.1795 17.694 15.5358 17.4144 15.8154C17.1347 16.0951 16.7785 16.2855 16.3906 16.3626C16.0027 16.4398 15.6007 16.4002 15.2353 16.2489C14.87 16.0975 14.5577 15.8412 14.338 15.5124C14.1183 15.1836 14.001 14.797 14.001 14.4015C14.001 13.8712 14.2116 13.3627 14.5866 12.9877C14.9616 12.6127 15.4702 12.402 16.0005 12.402Z" fill="#6E6E6F"/>
</svg>
