<svg width="16" height="16" viewBox="0 0 16 16" fill="none" xmlns="http://www.w3.org/2000/svg">
<path fill-rule="evenodd" clip-rule="evenodd" d="M3.5 4C3.5 3.72386 3.72386 3.5 4 3.5H6.03809C6.31423 3.5 6.53809 3.27614 6.53809 3C6.53809 2.72386 6.31423 2.5 6.03809 2.5H4C3.17157 2.5 2.5 3.17157 2.5 4V12C2.5 12.8284 3.17157 13.5 4 13.5H12C12.8284 13.5 13.5 12.8284 13.5 12V10.5C13.5 10.2239 13.2761 10 13 10C12.7239 10 12.5 10.2239 12.5 10.5V12C12.5 12.2761 12.2761 12.5 12 12.5H4C3.72386 12.5 3.5 12.2761 3.5 12V4ZM13 2.5H8.5C8.22386 2.5 8 2.72386 8 3C8 3.27614 8.22386 3.5 8.5 3.5L11.7929 3.5L6.64645 8.64645C6.45118 8.84171 6.45118 9.15829 6.64645 9.35355C6.84171 9.54882 7.15829 9.54882 7.35355 9.35355L12.5 4.20711V7.5C12.5 7.77614 12.7239 8 13 8C13.2761 8 13.5 7.77614 13.5 7.5L13.5 3C13.5 2.72386 13.2761 2.5 13 2.5Z" fill="#EDEDFF"/>
</svg>
