<svg width="32" height="32" viewBox="0 0 32 32" fill="none" xmlns="http://www.w3.org/2000/svg">
<path d="M20.5 12.7276V10.5001C20.5 10.2348 20.3946 9.98049 20.2071 9.79295C20.0196 9.60542 19.7652 9.50006 19.5 9.50006H12.5C12.2348 9.50006 11.9804 9.60542 11.7929 9.79295C11.6054 9.98049 11.5 10.2348 11.5 10.5001V12.7501C11.5003 12.9052 11.5366 13.0582 11.606 13.197C11.6754 13.3358 11.7761 13.4567 11.9 13.5501L15.1669 16.0001L11.9 18.4501C11.7761 18.5434 11.6754 18.6643 11.606 18.8031C11.5366 18.9419 11.5003 19.0949 11.5 19.2501V21.5001C11.5 21.7653 11.6054 22.0196 11.7929 22.2072C11.9804 22.3947 12.2348 22.5001 12.5 22.5001H19.5C19.7652 22.5001 20.0196 22.3947 20.2071 22.2072C20.3946 22.0196 20.5 21.7653 20.5 21.5001V19.2726C20.4996 19.1181 20.4636 18.9657 20.3947 18.8274C20.3259 18.6891 20.2261 18.5685 20.1031 18.4751L16.8294 16.0001L20.1031 13.5251C20.2262 13.4317 20.3261 13.3111 20.3949 13.1728C20.4638 13.0344 20.4997 12.8821 20.5 12.7276ZM19.1394 19.0001H12.8331L16 16.6251L19.1394 19.0001ZM12.5 21.5001V20.0001H19.5V21.5001H12.5ZM19.5 12.7276L16 15.3751L12.5 12.7501V10.5001H19.5V12.7276Z" fill="#D7D7D7"/>
</svg>
