<svg width="32" height="32" viewBox="0 0 32 32" fill="none" xmlns="http://www.w3.org/2000/svg">
<path d="M20.5 12.7276V10.5001C20.5 10.2349 20.3946 9.98055 20.2071 9.79302C20.0196 9.60548 19.7652 9.50012 19.5 9.50012H12.5C12.2348 9.50012 11.9804 9.60548 11.7929 9.79302C11.6054 9.98055 11.5 10.2349 11.5 10.5001V12.7501C11.5003 12.9053 11.5366 13.0583 11.606 13.1971C11.6754 13.3359 11.7761 13.4567 11.9 13.5501L15.1669 16.0001L11.9 18.4501C11.7761 18.5435 11.6754 18.6643 11.606 18.8031C11.5366 18.9419 11.5003 19.0949 11.5 19.2501V21.5001C11.5 21.7653 11.6054 22.0197 11.7929 22.2072C11.9804 22.3948 12.2348 22.5001 12.5 22.5001H19.5C19.7652 22.5001 20.0196 22.3948 20.2071 22.2072C20.3946 22.0197 20.5 21.7653 20.5 21.5001V19.2726C20.4996 19.1181 20.4636 18.9658 20.3947 18.8275C20.3259 18.6892 20.2261 18.5686 20.1031 18.4751L16.8294 16.0001L20.1031 13.5251C20.2262 13.4317 20.3261 13.3112 20.3949 13.1728C20.4638 13.0345 20.4997 12.8821 20.5 12.7276ZM19.1394 19.0001H12.8331L16 16.6251L19.1394 19.0001ZM12.5 21.5001V20.0001H19.5V21.5001H12.5ZM19.5 12.7276L16 15.3751L12.5 12.7501V10.5001H19.5V12.7276Z" fill="#6E6E6F"/>
</svg>
